# xmcd
#
# Track frame offsets:
#	150
#	10724
#	21496
#	42881
#	62594
#	77308
#	96378
#	116952
#	127380
#	137711
#	153378
#
# Disc length: 2220 seconds
#
# Revision: 1
# Processed by: cddbd v1.5.2PL0 Copyright (c) Steve Scherf et al.
# Submitted via: audiograbber 1.83.01
#
DISCID=9208aa0b
DTITLE=Southern Gospel - Volumne 27
DYEAR=1900
DGENRE=Gospel
TTITLE0=Dottie Rambo - Stand By The River
TTITLE1=Keith Perry - Gonna Be Moving
TTITLE2=Samanthia Cassidy - When Mercy Sought Me Out
TTITLE3=The Dartts - The Flag And The Cross
TTITLE4=Toney Mac and Lloyd Lindback - Just Turn Around
TTITLE5=The Harpers - Hold On
TTITLE6=Krystal Miller - What More Could He Have Done
TTITLE7=The Allens - I'm Just A Nobody
TTITLE8=A.L. Watkins - This Is The Day
TTITLE9=Vera George - I Can't Give Up
TTITLE10=Dr. Jim Matthews and Family - Oh, How I Love Him
EXTD=
EXTT0=
EXTT1=
EXTT2=
EXTT3=
EXTT4=
EXTT5=
EXTT6=
EXTT7=
EXTT8=
EXTT9=
EXTT10=
PLAYORDER=
